<svg width="288" height="210" viewBox="0 0 288 210" fill="none" xmlns="http://www.w3.org/2000/svg">
<g opacity="0.3">
<path d="M379 227.687C379.076 226.819 378.896 225.948 378.483 225.181C378.07 224.414 377.441 223.784 376.674 223.37V223.37C371.25 220.733 366.114 217.543 361.348 213.85C348.137 203.869 338.075 190.305 332.359 174.773V174.773C332.064 173.953 331.53 173.241 330.826 172.728C330.121 172.214 329.279 171.924 328.408 171.894C327.54 171.845 326.678 172.058 325.934 172.506C325.189 172.953 324.597 173.615 324.235 174.404V174.404C319.298 184.565 312.438 193.675 304.035 201.23C298.442 206.266 292.239 210.58 285.57 214.071C192.248 204.24 106.459 158.374 46.4935 86.2495C37.4738 75.4277 29.0892 64.0927 21.3819 52.3015C18.0068 58.7136 15.0105 65.3177 12.4082 72.0799C21.0035 84.3852 30.3132 96.1765 40.2894 107.393C103.239 178.318 190.587 222.986 284.979 232.521C300.734 242.752 312.745 257.809 319.212 275.436V275.436C319.502 276.258 320.03 276.976 320.729 277.497C321.428 278.018 322.267 278.32 323.138 278.364C324.01 278.407 324.874 278.191 325.622 277.741C326.37 277.292 326.967 276.631 327.337 275.842C337.187 255.297 354.679 239.408 376.083 231.562V231.562C376.715 231.346 377.276 230.964 377.708 230.455C378.462 229.72 378.921 228.736 379 227.687Z" fill="url(#paint0_linear_627_1282)"/>
<path d="M369.029 128.758C366.978 90.1995 352.871 53.2555 328.697 23.1312C304.522 -6.99308 271.498 -28.7794 234.277 -39.1583C197.055 -49.5372 157.513 -47.9856 121.221 -34.7222C84.9294 -21.4587 53.7166 2.84816 31.9805 34.7739L36.8551 42.1539C42.5421 50.8623 48.7092 59.3493 55.3195 67.5411C71.1349 38.9084 96.0195 16.335 126.066 3.36562C156.112 -9.60382 189.618 -12.2348 221.323 -4.11418C253.027 4.00643 281.135 22.4187 301.233 48.2315C321.33 74.0443 332.278 105.796 332.359 138.5C332.359 141.821 332.359 145.142 331.99 148.389C333.506 149.147 334.661 150.474 335.203 152.079V152.079L336.089 154.367C341.828 168.932 350.203 182.316 360.794 193.85V193.85C361.237 192.411 361.607 190.972 362.05 189.496C367.741 169.779 370.099 149.251 369.029 128.758V128.758Z" fill="url(#paint1_linear_627_1282)"/>
<path d="M290.961 256.58C288.376 253.739 285.681 251.045 282.911 248.499L279.587 251.34C258.062 269.386 231.833 280.923 203.976 284.598C176.12 288.272 147.793 283.932 122.318 272.086C96.844 260.24 75.2792 241.38 60.1545 217.718C45.0298 194.057 36.9726 166.576 36.9284 138.5C36.9284 135.954 36.9284 133.445 37.113 131.12C33.4201 127.43 29.9488 123.74 26.4775 119.681C19.0918 111.452 12.1492 102.854 5.53892 93.8508C-3.80288 131.453 -1.0612 171.039 13.3752 206.997C27.8116 242.955 53.2101 273.459 85.9694 294.185C118.729 314.91 157.186 324.805 195.889 322.466C234.592 320.128 271.576 305.674 301.597 281.155L306.213 277.465C301.841 270.011 296.732 263.014 290.961 256.58V256.58Z" fill="url(#paint2_linear_627_1282)"/>
</g>
<defs>
<linearGradient id="paint0_linear_627_1282" x1="195.723" y1="278.314" x2="195.723" y2="52.3015" gradientUnits="userSpaceOnUse">
<stop stop-color="#375BD2"/>
<stop offset="1" stop-color="#1A2B6B"/>
</linearGradient>
<linearGradient id="paint1_linear_627_1282" x1="31.9805" y1="73.9248" x2="369.288" y2="73.9248" gradientUnits="userSpaceOnUse">
<stop stop-color="#375BD2"/>
<stop offset="1" stop-color="#1A2B6B"/>
</linearGradient>
<linearGradient id="paint2_linear_627_1282" x1="-0.00040071" y1="208.425" x2="306.213" y2="208.425" gradientUnits="userSpaceOnUse">
<stop stop-color="#375BD2"/>
<stop offset="1" stop-color="#1A2B6B"/>
</linearGradient>
</defs>
</svg>
