<svg width="18" height="18" viewBox="0 0 18 18" fill="none" xmlns="http://www.w3.org/2000/svg">
<path d="M9 0C4.02938 0 0 4.02938 0 9C0 13.9706 4.02938 18 9 18C13.9706 18 18 13.9706 18 9C18 4.02938 13.9706 0 9 0ZM7.77653 4.69923L9 3.47576L12.3737 6.84836L11.1502 8.07183L9 5.9227L6.85059 8.07239L5.62712 6.84892L7.77598 4.69923H7.77653ZM10.2268 9.00028L9.00334 10.2237L7.77987 9.00028L9.00334 7.77681L10.2268 9.00028ZM3.47521 9.00028L4.69867 7.77681L5.92214 9.00028L4.69867 10.2237L3.47521 9.00028ZM9 14.5253L5.62629 11.1516L6.84975 9.92817L8.99917 12.0776L11.1502 9.92678L12.3737 11.1502L9 14.5253ZM13.301 10.224L12.0776 9.00056L13.301 7.77709L14.5245 9.00056L13.301 10.224Z" fill="#375BD2"/>
</svg>
