<svg width="34" height="26" viewBox="0 0 34 26" fill="none" xmlns="http://www.w3.org/2000/svg">
<path d="M28.4219 12.3867C27.7578 13.0508 26.7617 13.582 25.6328 13.9805C23.375 14.9102 20.3203 15.375 16.9336 15.375C13.6133 15.375 10.5586 14.9102 8.30078 13.9805C7.17188 13.582 6.17578 13.0508 5.51172 12.3867C4.78125 11.7227 4.18359 10.8594 4.18359 9.79688C4.18359 8.80078 4.78125 7.9375 5.51172 7.27344C6.17578 6.60938 7.17188 6.07812 8.30078 5.61328C10.5586 4.75 13.6133 4.21875 16.9336 4.21875C20.3203 4.21875 23.375 4.75 25.6328 5.61328C26.7617 6.07812 27.7578 6.60938 28.4219 7.27344C29.1523 7.9375 29.75 8.80078 29.75 9.79688C29.75 10.8594 29.1523 11.7227 28.4219 12.3867ZM9.09766 7.60547C8.10156 8.00391 7.37109 8.40234 6.90625 8.86719C6.44141 9.26562 6.375 9.59766 6.375 9.79688C6.375 10.0625 6.44141 10.3945 6.90625 10.793C7.37109 11.1914 8.10156 11.6562 9.09766 12.0547C11.0234 12.7852 13.8125 13.25 17 13.25C20.1211 13.25 22.9102 12.7852 24.8359 12.0547C25.832 11.6562 26.5625 11.1914 27.0273 10.793C27.4922 10.3945 27.625 10.0625 27.625 9.79688C27.625 9.59766 27.4922 9.26562 27.0273 8.86719C26.5625 8.40234 25.832 8.00391 24.8359 7.60547C22.9102 6.875 20.1211 6.34375 17 6.34375C13.8125 6.34375 11.0234 6.875 9.09766 7.60547ZM0 10.0625C0 4.81641 7.57031 0.5 17 0.5C26.3633 0.5 34 4.81641 34 10.0625V17.5C34 22.2148 26.3633 26 17 26C7.57031 26 0 22.2148 0 17.5V10.0625ZM27.957 14.9766C30.7461 13.4492 31.875 11.6562 31.875 10.0625C31.875 8.53516 30.7461 6.74219 27.957 5.21484C25.2344 3.6875 21.3828 2.625 17 2.625C12.5508 2.625 8.69922 3.6875 5.97656 5.21484C3.1875 6.74219 2.125 8.53516 2.125 10.0625C2.125 11.6562 3.1875 13.4492 5.97656 14.9766C8.69922 16.5039 12.5508 17.5 17 17.5C21.3828 17.5 25.2344 16.5039 27.957 14.9766ZM11.6875 23.4766C13.0156 23.6758 14.4102 23.8086 15.9375 23.875V19.625C14.4102 19.5586 13.0156 19.4258 11.6875 19.1602V23.4766ZM9.5625 18.6953C8.36719 18.3633 7.30469 18.0312 6.375 17.5664V21.8828C7.30469 22.2812 8.36719 22.6797 9.5625 23.0117V18.6953ZM2.125 17.5C2.125 18.3633 2.65625 19.4922 4.25 20.6211V16.4375C3.38672 15.9062 2.72266 15.3086 2.125 14.7109V17.5ZM18.0625 19.625V23.875C19.5234 23.8086 20.918 23.6758 22.3125 23.4766V19.1602C20.918 19.4258 19.5234 19.5586 18.0625 19.625ZM31.875 14.7109C31.2109 15.3086 30.5469 15.9062 29.75 16.4375V20.6211C31.2773 19.4922 31.875 18.3633 31.875 17.5V14.7109ZM24.4375 23.0117C25.5664 22.6797 26.6289 22.2812 27.625 21.8828V17.5664C26.6289 18.0312 25.5664 18.3633 24.4375 18.6953V23.0117Z" fill="#375BD2"/>
</svg>
