<svg width="40" height="35" viewBox="0 0 40 35" fill="none" xmlns="http://www.w3.org/2000/svg">
<path d="M37.125 15.625H36.1953C35.4648 13.9648 34.2695 12.5703 32.8086 11.4414V7.125L31.7461 7.19141C28.625 7.19141 26.168 8.98438 25.7695 9.25H15.8086C13.0195 9.25 10.2969 10.3789 8.37109 12.2383C6.84375 13.6992 5.78125 15.625 5.38281 17.75H4.65234C3.72266 17.75 2.92578 16.8867 3.125 15.8906C3.25781 15.293 3.65625 14.7617 4.38672 14.6289C4.85156 14.5625 5.18359 14.0977 5.18359 13.6328C5.18359 13.0352 4.71875 12.5703 4.1875 12.5703C4.05469 12.5703 3.98828 12.5703 3.92188 12.5703C2.39453 12.9023 1.19922 14.0977 1 15.6914C0.734375 17.9492 2.46094 19.875 4.65234 19.875L5.18359 19.9414C5.18359 23.3945 6.91016 26.4492 9.43359 28.375V31.5625C9.43359 33.3555 10.8945 34.75 12.6211 34.75H15.8086C17.5352 34.75 18.9297 33.3555 18.9297 31.6289V30.5H23.1797V31.5625C23.2461 33.3555 24.707 34.75 26.4336 34.75H29.6211C31.3477 34.75 32.8086 33.3555 32.8086 31.6289V28.4414C33.5391 27.8438 34.2695 27.1133 34.8672 26.3164H37.0586C38.2539 26.25 39.25 25.3203 39.25 24.125V17.75C39.25 16.6211 38.2539 15.625 37.125 15.625ZM35.9961 23.0625H33.2734L32.3438 24.3906C31.9453 24.8555 31.4141 25.3867 30.8164 25.8516L29.6211 26.7812V31.5625H26.4336V27.3789H15.8086V31.5625H12.6211V26.7812L11.293 25.7852C9.43359 24.3906 8.37109 22.1992 8.37109 19.875V19.0781L8.57031 18.4141C8.83594 16.9531 9.56641 15.625 10.6289 14.6289C12.0234 13.3008 13.9492 12.4375 15.8086 12.4375H26.832L27.6953 11.8398C28.2266 11.4414 28.8906 11.043 29.6211 10.7773V13.0352L30.8828 13.9648C31.8789 14.7617 32.7422 15.8242 33.207 16.9531L34.0703 18.8789H35.9961V23.0625ZM29.0898 16.6875C28.1602 16.6875 27.4961 17.418 27.4961 18.2812C27.4961 19.1445 28.1602 19.8086 29.0898 19.8086C29.9531 19.8086 30.6836 19.0781 30.6836 18.2812C30.6836 17.418 30.0195 16.6875 29.0898 16.6875ZM13.6172 7.52344C13.8164 7.65625 14.082 7.65625 14.2812 7.65625C14.8789 7.65625 15.4766 7.32422 15.7422 6.79297C16.5391 5.13281 18.1992 4.00391 20.125 4.00391C21.7188 4.00391 23.1797 4.80078 24.043 6.19531C24.5742 6.92578 25.5703 7.125 26.3008 6.59375C27.0312 6.12891 27.2305 5.13281 26.6992 4.40234C25.2383 2.14453 22.7812 0.75 20.125 0.75C17.0039 0.75 14.1484 2.60938 12.8203 5.46484C12.4883 6.26172 12.8203 7.19141 13.6172 7.52344Z" fill="#375BD2"/>
</svg>
