<svg width="36" height="32" viewBox="0 0 36 32" fill="none" xmlns="http://www.w3.org/2000/svg">
<g clip-path="url(#clip0_320_10)">
<path d="M1.83241 30.4C1.6407 30.4018 1.44924 30.3858 1.26055 30.352C1.05003 30.3201 0.848518 30.245 0.668913 30.1313C0.489309 30.0177 0.335562 29.8681 0.217506 29.692C-0.426845 28.684 0.140989 27.048 4.97765 22.336C5.05165 22.2565 5.14115 22.1926 5.24072 22.1485C5.34029 22.1043 5.44785 22.0806 5.5569 22.079C5.66594 22.0773 5.77419 22.0976 5.87507 22.1388C5.97596 22.1799 6.06739 22.2409 6.14382 22.3182C6.22025 22.3955 6.28008 22.4874 6.3197 22.5883C6.35931 22.6892 6.37788 22.7971 6.37427 22.9053C6.37067 23.0136 6.34496 23.12 6.29872 23.2181C6.25248 23.3162 6.18667 23.4039 6.10526 23.476C2.41635 27.076 1.75187 28.4 1.63911 28.8C3.22985 29.128 11.3608 26 19.5078 20.312C27.5138 14.732 33.4459 8.07601 33.8285 6.40001C33.3372 6.40001 31.8149 6.67201 27.4695 8.71201C27.3735 8.759 27.269 8.7865 27.1622 8.79292C27.0553 8.79933 26.9483 8.78453 26.8473 8.74938C26.7462 8.71422 26.6533 8.65942 26.5738 8.58818C26.4944 8.51693 26.43 8.43067 26.3845 8.33444C26.339 8.2382 26.3133 8.13392 26.3088 8.0277C26.3044 7.92148 26.3213 7.81543 26.3586 7.71577C26.3958 7.61611 26.4527 7.52483 26.5259 7.44726C26.5992 7.36969 26.6872 7.3074 26.7849 7.26401C32.9344 4.38801 34.5775 4.42801 35.242 5.42401C35.5481 5.89201 36.3616 7.13201 31.2712 12.44C27.9657 15.8402 24.3424 18.9207 20.4501 21.64C14.1999 25.96 5.30788 30.4 1.83241 30.4Z" fill="#1A2B6B"/>
<path d="M33.6513 13.652C33.0788 17.3335 31.2309 20.7013 28.4262 23.1745C25.6215 25.6477 22.0359 27.0713 18.2876 27.2H17.8607H17.6956C16.7956 27.1971 15.8991 27.087 15.0255 26.872L14.8926 26.948C13.0885 27.956 11.2239 28.916 9.43579 29.72C11.8801 31.1757 14.6696 31.9613 17.5194 31.9965C20.3693 32.0317 23.1775 31.3153 25.6575 29.9204C28.1376 28.5254 30.2006 26.5019 31.6361 24.0564C33.0716 21.6108 33.8281 18.8308 33.8285 16C33.829 15.214 33.7697 14.4291 33.6513 13.652Z" fill="#375BD2"/>
<path d="M9.97928 24.128C8.37369 22.622 7.2487 20.6807 6.74393 18.5453C6.23915 16.4099 6.3768 14.1742 7.13981 12.1157C7.90282 10.0573 9.25759 8.26673 11.036 6.9662C12.8144 5.66568 14.9381 4.91247 17.1437 4.80005C13.3912 4.93538 9.80422 6.3685 7.00261 8.85173C4.20101 11.335 2.36082 14.7123 1.80005 18.4C2.24131 21.2762 3.46377 23.9785 5.33593 26.216C6.65282 25.712 8.23551 25.008 9.97928 24.128Z" fill="#375BD2"/>
<path d="M32.4188 13.536L32.2174 13.76C31.2187 14.788 30.1313 15.832 28.9957 16.868C28.7857 19.5908 27.5815 22.1435 25.6095 24.0462C23.6375 25.9489 21.0335 27.0705 18.2874 27.2C22.0356 27.0714 25.6213 25.6477 28.426 23.1745C31.2306 20.7013 33.0786 17.3336 33.6511 13.652C33.5907 13.252 33.5182 12.852 33.4296 12.452C33.1115 12.8 32.7772 13.16 32.4188 13.536Z" fill="#1A2B6B"/>
<path d="M17.7197 2.40776e-07C15.4006 0.00100451 13.109 0.499362 11.0016 1.46101C8.89428 2.42265 7.02082 3.82491 5.50932 5.57192C3.99783 7.31893 2.88393 9.36951 2.24377 11.5835C1.60362 13.7974 1.45231 16.1226 1.80018 18.4C2.36094 14.7122 4.20114 11.3349 7.00274 8.85168C9.80434 6.36845 13.3913 4.93533 17.1438 4.8C17.3371 4.8 17.5465 4.8 17.7237 4.8C19.8632 4.80046 21.9584 5.40547 23.7647 6.54439C25.571 7.68331 27.0138 9.30913 27.9246 11.232C28.4481 10.712 28.9301 10.216 29.3704 9.744C30.1758 8.872 30.8524 8.092 31.3397 7.452C29.8871 5.16915 27.8764 3.28863 25.4949 1.98562C23.1134 0.682619 20.4386 -0.000468206 17.7197 2.40776e-07Z" fill="#1A2B6B"/>
<path d="M1.83241 30.4C1.6407 30.4018 1.44924 30.3858 1.26055 30.352C1.05003 30.3201 0.848518 30.245 0.668913 30.1313C0.489309 30.0177 0.335562 29.8681 0.217506 29.692C-0.426845 28.684 0.140989 27.048 4.97765 22.336C5.05165 22.2565 5.14115 22.1926 5.24072 22.1485C5.34029 22.1043 5.44785 22.0806 5.5569 22.079C5.66594 22.0773 5.77419 22.0976 5.87507 22.1388C5.97596 22.1799 6.06739 22.2409 6.14382 22.3182C6.22025 22.3955 6.28008 22.4874 6.3197 22.5883C6.35931 22.6892 6.37788 22.7971 6.37427 22.9053C6.37067 23.0136 6.34496 23.12 6.29872 23.2181C6.25248 23.3162 6.18667 23.4039 6.10526 23.476C2.41635 27.076 1.75187 28.4 1.63911 28.8C3.22985 29.128 11.3608 26 19.5078 20.312C27.5138 14.732 33.4459 8.07601 33.8285 6.40001C33.3372 6.40001 31.8149 6.67201 27.4695 8.71201C27.3735 8.759 27.269 8.7865 27.1622 8.79292C27.0553 8.79933 26.9483 8.78453 26.8473 8.74938C26.7462 8.71422 26.6533 8.65942 26.5738 8.58818C26.4944 8.51693 26.43 8.43067 26.3845 8.33444C26.339 8.2382 26.3133 8.13392 26.3088 8.0277C26.3044 7.92148 26.3213 7.81543 26.3586 7.71577C26.3958 7.61611 26.4527 7.52483 26.5259 7.44726C26.5992 7.36969 26.6872 7.3074 26.7849 7.26401C32.9344 4.38801 34.5775 4.42801 35.242 5.42401C35.5481 5.89201 36.3616 7.13201 31.2712 12.44C27.9657 15.8402 24.3424 18.9207 20.4501 21.64C14.1999 25.96 5.30788 30.4 1.83241 30.4Z" fill="#375BD2"/>
<path d="M33.6513 13.652C33.0788 17.3335 31.2309 20.7013 28.4262 23.1745C25.6215 25.6477 22.0359 27.0713 18.2876 27.2H17.8607H17.6956C16.7956 27.1971 15.8991 27.087 15.0255 26.872L14.8926 26.948C13.0885 27.956 11.2239 28.916 9.43579 29.72C11.8801 31.1757 14.6696 31.9613 17.5194 31.9965C20.3693 32.0317 23.1775 31.3153 25.6575 29.9204C28.1376 28.5254 30.2006 26.5019 31.6361 24.0564C33.0716 21.6108 33.8281 18.8308 33.8285 16C33.829 15.214 33.7697 14.4291 33.6513 13.652Z" fill="#375BD2"/>
<path d="M9.97928 24.128C8.37369 22.622 7.2487 20.6807 6.74393 18.5453C6.23915 16.4099 6.37681 14.1742 7.13981 12.1157C7.90282 10.0573 9.25759 8.26673 11.036 6.9662C12.8144 5.66568 14.9381 4.91247 17.1437 4.80005C13.3912 4.93538 9.80422 6.3685 7.00261 8.85173C4.20101 11.335 2.36082 14.7123 1.80005 18.4C2.24131 21.2762 3.46377 23.9785 5.33593 26.216C6.65282 25.712 8.23551 25.008 9.97928 24.128Z" fill="#375BD2"/>
<path d="M32.4188 13.536L32.2174 13.76C31.2187 14.788 30.1313 15.832 28.9957 16.868C28.7857 19.5908 27.5815 22.1435 25.6095 24.0462C23.6375 25.9489 21.0335 27.0705 18.2874 27.2C22.0356 27.0714 25.6213 25.6477 28.426 23.1745C31.2306 20.7013 33.0786 17.3336 33.6511 13.652C33.5907 13.252 33.5182 12.852 33.4296 12.452C33.1115 12.8 32.7772 13.16 32.4188 13.536Z" fill="#1A2B6B"/>
<path d="M17.7197 2.40776e-07C15.4006 0.00100451 13.109 0.499362 11.0016 1.46101C8.89428 2.42265 7.02082 3.82491 5.50932 5.57192C3.99783 7.31893 2.88393 9.36951 2.24377 11.5835C1.60362 13.7974 1.45231 16.1226 1.80018 18.4C2.36094 14.7122 4.20114 11.3349 7.00274 8.85168C9.80434 6.36845 13.3913 4.93533 17.1438 4.8C17.3371 4.8 17.5465 4.8 17.7237 4.8C19.8632 4.80046 21.9584 5.40547 23.7647 6.54439C25.571 7.68331 27.0138 9.30913 27.9246 11.232C28.4481 10.712 28.9301 10.216 29.3704 9.744C30.1758 8.872 30.8524 8.092 31.3397 7.452C29.8871 5.16915 27.8764 3.28863 25.4949 1.98562C23.1134 0.682619 20.4386 -0.000468206 17.7197 2.40776e-07Z" fill="#1A2B6B"/>
</g>
<defs>
<clipPath id="clip0_320_10">
<rect width="35.4595" height="32" fill="white"/>
</clipPath>
</defs>
</svg>
