<svg width="31" height="30" viewBox="0 0 31 30" fill="none" xmlns="http://www.w3.org/2000/svg">
<path d="M30.8263 22.2618C30.8325 22.1912 30.8179 22.1203 30.7842 22.0579C30.7506 21.9955 30.6994 21.9443 30.637 21.9105V21.9105C30.1958 21.696 29.778 21.4365 29.3902 21.136C28.3154 20.324 27.4968 19.2205 27.0318 17.9569V17.9569C27.0078 17.8902 26.9643 17.8322 26.907 17.7905C26.8497 17.7488 26.7812 17.7251 26.7103 17.7227C26.6397 17.7187 26.5696 17.736 26.509 17.7724C26.4485 17.8089 26.4003 17.8627 26.3708 17.9269V17.9269C25.9692 18.7535 25.4111 19.4947 24.7274 20.1093C24.2725 20.5191 23.7678 20.87 23.2252 21.154C15.6329 20.3542 8.65355 16.6227 3.77498 10.755C3.04118 9.87461 2.35905 8.95244 1.73201 7.99316C1.45743 8.51483 1.21366 9.05211 1.00195 9.60225C1.70123 10.6034 2.45863 11.5626 3.27025 12.4752C8.39159 18.2453 15.4978 21.8793 23.1772 22.6551C24.4589 23.4874 25.436 24.7124 25.9622 26.1464V26.1464C25.9858 26.2133 26.0287 26.2717 26.0856 26.3141C26.1425 26.3565 26.2107 26.3811 26.2816 26.3846C26.3525 26.3881 26.4228 26.3705 26.4837 26.334C26.5445 26.2974 26.5931 26.2436 26.6232 26.1794C27.4246 24.508 28.8476 23.2153 30.5889 22.577V22.577C30.6403 22.5595 30.686 22.5283 30.7211 22.4869C30.7825 22.4272 30.8199 22.3471 30.8263 22.2618Z" fill="white"/>
<path d="M30.0146 14.2134C29.8477 11.0764 28.7001 8.07079 26.7333 5.62001C24.7666 3.16922 22.0798 1.39679 19.0517 0.552401C16.0235 -0.291983 12.8066 -0.165754 9.85401 0.913305C6.90145 1.99236 4.36211 3.96986 2.59375 6.56721L2.99033 7.16761C3.453 7.87609 3.95473 8.56656 4.49251 9.23301C5.77919 6.90357 7.80368 5.0671 10.2481 4.01196C12.6925 2.95683 15.4184 2.74278 17.9978 3.40344C20.5772 4.0641 22.8639 5.56204 24.4989 7.66206C26.134 9.76207 27.0247 12.3452 27.0313 15.0059C27.0313 15.2761 27.0313 15.5463 27.0012 15.8104C27.1246 15.8721 27.2185 15.98 27.2626 16.1106V16.1106L27.3347 16.2968C27.8016 17.4817 28.4829 18.5706 29.3446 19.5089V19.5089C29.3807 19.3919 29.4107 19.2748 29.4468 19.1547C29.9097 17.5506 30.1016 15.8806 30.0146 14.2134V14.2134Z" fill="white"/>
<path d="M23.6633 24.612C23.453 24.3808 23.2336 24.1617 23.0083 23.9545L22.7379 24.1857C20.9867 25.6538 18.8528 26.5924 16.5865 26.8914C14.3203 27.1903 12.0157 26.8372 9.9432 25.8735C7.87071 24.9098 6.11629 23.3754 4.88581 21.4504C3.65533 19.5254 2.99983 17.2896 2.99623 15.0055C2.99623 14.7984 2.99623 14.5942 3.01125 14.4051C2.71081 14.1049 2.4284 13.8047 2.14599 13.4745C1.54512 12.805 0.9803 12.1055 0.442518 11.373C-0.317489 14.4322 -0.0944383 17.6528 1.08005 20.5781C2.25453 23.5035 4.32084 25.9852 6.98599 27.6713C9.65114 29.3575 12.7799 30.1625 15.9286 29.9722C19.0773 29.782 22.0861 28.6061 24.5285 26.6113L24.9041 26.3111C24.5484 25.7047 24.1327 25.1355 23.6633 24.612V24.612Z" fill="white"/>
</svg>
