<svg xmlns="http://www.w3.org/2000/svg" xmlns:xlink="http://www.w3.org/1999/xlink" viewBox="0 0 102.63 100"><defs><style>.cls-1{fill:url(#linear-gradient);}.cls-2{fill:url(#linear-gradient-2);}.cls-3{fill:url(#linear-gradient-3);}</style><linearGradient id="linear-gradient" x1="53" y1="87.89" x2="53" y2="26.64" gradientUnits="userSpaceOnUse"><stop offset="0" stop-color="#375bd2"/><stop offset="1" stop-color="#1a2b6b"/></linearGradient><linearGradient id="linear-gradient-2" x1="8.66" y1="32.5" x2="100" y2="32.5" xlink:href="#linear-gradient"/><linearGradient id="linear-gradient-3" x1="0" y1="68.95" x2="82.92" y2="68.95" xlink:href="#linear-gradient"/></defs><g id="Layer_2" data-name="Layer 2"><g id="Layer_1-2" data-name="Layer 1"><path class="cls-1" d="M102.63,74.17A1.21,1.21,0,0,0,102,73h0a23.67,23.67,0,0,1-4.15-2.58A23.4,23.4,0,0,1,90,59.83h0a1.18,1.18,0,0,0-1.07-.78,1.17,1.17,0,0,0-1.13.68h0A23.71,23.71,0,0,1,82.33,67a24.34,24.34,0,0,1-5,3.48A97.45,97.45,0,0,1,12.59,35.84a98.8,98.8,0,0,1-6.8-9.2A50.29,50.29,0,0,0,3.36,32a104.08,104.08,0,0,0,7.55,9.57A102.32,102.32,0,0,0,77.17,75.48a23.53,23.53,0,0,1,9.27,11.63h0a1.19,1.19,0,0,0,2.2.11h0a23.68,23.68,0,0,1,13.2-12h0a1,1,0,0,0,.44-.3A1.17,1.17,0,0,0,102.63,74.17Z"/><path class="cls-2" d="M99.93,47.36A50,50,0,0,0,8.66,21.89l1.32,2c1.54,2.36,3.21,4.66,5,6.88A40,40,0,0,1,90,50c0,.9,0,1.8-.1,2.68a1.74,1.74,0,0,1,.87,1h0l.24.62A34.54,34.54,0,0,0,97.7,65h0c.12-.39.22-.78.34-1.18A50,50,0,0,0,99.93,47.36Z"/><path class="cls-3" d="M78.79,82c-.7-.77-1.43-1.5-2.18-2.19l-.9.77A40,40,0,0,1,10,50c0-.69,0-1.37.05-2-1-1-1.94-2-2.88-3.1-2-2.23-3.88-4.56-5.67-7A50,50,0,0,0,81.67,88.66l1.25-1A35,35,0,0,0,78.79,82Z"/></g></g></svg>