<svg width="34" height="30" viewBox="0 0 34 30" fill="none" xmlns="http://www.w3.org/2000/svg">
<path d="M1.71777 28.5028C1.53803 28.5045 1.35852 28.4895 1.18162 28.4578C0.984237 28.4279 0.79531 28.3575 0.626919 28.2509C0.458529 28.1444 0.314381 28.0041 0.203696 27.839C-0.400423 26.894 0.131957 25.3601 4.66663 20.9423C4.73601 20.8677 4.81992 20.8079 4.91327 20.7665C5.00663 20.725 5.10748 20.7029 5.20971 20.7013C5.31194 20.6998 5.41343 20.7188 5.50802 20.7574C5.60261 20.7959 5.68833 20.8532 5.75999 20.9256C5.83165 20.9981 5.88774 21.0842 5.92488 21.1788C5.96202 21.2734 5.97943 21.3746 5.97605 21.4761C5.97267 21.5776 5.94857 21.6773 5.90522 21.7693C5.86187 21.8613 5.80016 21.9436 5.72384 22.0111C2.26525 25.3864 1.64226 26.6277 1.53654 27.0027C3.02796 27.3102 10.6512 24.3775 18.2895 19.0447C25.7957 13.8131 31.3574 7.57267 31.7161 6.00131C31.2555 6.00131 29.8282 6.25633 25.7542 8.16896C25.6642 8.21301 25.5662 8.23879 25.466 8.24481C25.3659 8.25082 25.2655 8.23695 25.1708 8.20399C25.0761 8.17103 24.9889 8.11965 24.9144 8.05285C24.8399 7.98605 24.7796 7.90518 24.7369 7.81495C24.6943 7.72473 24.6701 7.62696 24.666 7.52737C24.6618 7.42778 24.6776 7.32836 24.7126 7.23492C24.7475 7.14148 24.8009 7.0559 24.8695 6.98317C24.9382 6.91045 25.0207 6.85204 25.1123 6.81137C30.8779 4.11493 32.4184 4.15244 33.0414 5.08625C33.3283 5.52503 34.091 6.68761 29.3185 11.6642C26.2194 14.8521 22.8223 17.7403 19.1731 20.2898C13.3131 24.34 4.97624 28.5028 1.71777 28.5028Z" fill="white"/>
<path d="M31.5493 12.7988C31.0125 16.2505 29.2799 19.408 26.6504 21.7268C24.0208 24.0456 20.6591 25.3803 17.1448 25.5009H16.7446H16.5898C15.7459 25.4983 14.9055 25.395 14.0864 25.1934L13.9618 25.2647C12.2703 26.2097 10.5221 27.1098 8.8457 27.8636C11.1374 29.2284 13.7527 29.965 16.4246 29.998C19.0965 30.031 21.7294 29.3593 24.0546 28.0515C26.3798 26.7436 28.314 24.8465 29.6599 22.5536C31.0057 20.2608 31.715 17.6543 31.7154 15.0002C31.7158 14.2633 31.6603 13.5274 31.5493 12.7988Z" fill="white"/>
<path d="M9.35605 22.6222C7.85071 21.2101 6.79596 19.3901 6.3227 17.388C5.84944 15.3859 5.9785 13.2898 6.69387 11.3599C7.40923 9.42999 8.67941 7.7512 10.3468 6.53188C12.0141 5.31256 14.0053 4.60638 16.0731 4.50098C12.5549 4.62786 9.19191 5.97149 6.56523 8.29968C3.93855 10.6279 2.21326 13.7943 1.6875 17.2518C2.10121 19.9484 3.24735 22.482 5.00261 24.5798C6.23728 24.1073 7.72115 23.4472 9.35605 22.6222Z" fill="white"/>
<path d="M30.3936 12.6911L30.2048 12.9011C29.2685 13.865 28.249 14.8438 27.1842 15.8151C26.9874 18.3678 25.8584 20.7612 24.0095 22.5451C22.1606 24.329 19.7192 25.3805 17.1445 25.502C20.6588 25.3814 24.0205 24.0466 26.6501 21.7278C29.2797 19.409 31.0122 16.2516 31.549 12.7999C31.4924 12.4249 31.4244 12.0498 31.3414 11.6748C31.0431 12.0011 30.7297 12.3386 30.3936 12.6911Z" fill="white"/>
<path d="M16.614 2.25743e-07C14.4397 0.000941791 12.2912 0.468184 10.3154 1.36979C8.33963 2.27139 6.58314 3.58609 5.16602 5.22403C3.74889 6.86196 2.70454 8.78451 2.10436 10.8602C1.50417 12.936 1.36231 15.116 1.68845 17.2512C2.21421 13.7937 3.93951 10.6272 6.56619 8.29901C9.19287 5.97082 12.5559 4.62718 16.0741 4.5003C16.2553 4.5003 16.4516 4.5003 16.6178 4.5003C18.6237 4.50073 20.5881 5.06797 22.2816 6.13578C23.9751 7.20358 25.3278 8.72789 26.1817 10.5307C26.6726 10.0432 27.1244 9.57815 27.5372 9.13562C28.2924 8.31806 28.9267 7.58676 29.3836 6.98672C28.0217 4.8464 26.1365 3.0833 23.9037 1.86165C21.6709 0.639998 19.1631 -0.000438973 16.614 2.25743e-07Z" fill="white"/>
<path d="M1.71777 28.5028C1.53803 28.5045 1.35852 28.4895 1.18162 28.4578C0.984237 28.4279 0.79531 28.3575 0.626919 28.2509C0.458529 28.1444 0.314381 28.0041 0.203696 27.839C-0.400423 26.894 0.131957 25.3601 4.66663 20.9423C4.73601 20.8677 4.81992 20.8079 4.91327 20.7665C5.00663 20.725 5.10748 20.7029 5.20971 20.7013C5.31194 20.6998 5.41343 20.7188 5.50802 20.7574C5.60261 20.7959 5.68833 20.8532 5.75999 20.9256C5.83165 20.9981 5.88774 21.0842 5.92488 21.1788C5.96202 21.2734 5.97943 21.3746 5.97605 21.4761C5.97267 21.5776 5.94857 21.6773 5.90522 21.7693C5.86187 21.8613 5.80016 21.9436 5.72384 22.0111C2.26525 25.3864 1.64226 26.6277 1.53654 27.0027C3.02796 27.3102 10.6512 24.3775 18.2895 19.0447C25.7957 13.8131 31.3574 7.57267 31.7161 6.00131C31.2555 6.00131 29.8282 6.25633 25.7542 8.16896C25.6642 8.21301 25.5662 8.23879 25.466 8.24481C25.3659 8.25082 25.2655 8.23695 25.1708 8.20399C25.0761 8.17103 24.9889 8.11965 24.9144 8.05285C24.8399 7.98605 24.7796 7.90518 24.7369 7.81495C24.6943 7.72473 24.6701 7.62696 24.666 7.52737C24.6618 7.42778 24.6776 7.32836 24.7126 7.23492C24.7475 7.14148 24.8009 7.0559 24.8695 6.98317C24.9382 6.91045 25.0207 6.85204 25.1123 6.81137C30.8779 4.11493 32.4184 4.15244 33.0414 5.08625C33.3283 5.52503 34.091 6.68761 29.3185 11.6642C26.2194 14.8521 22.8223 17.7403 19.1731 20.2898C13.3131 24.34 4.97624 28.5028 1.71777 28.5028Z" fill="white"/>
<path d="M31.5493 12.7988C31.0125 16.2505 29.2799 19.408 26.6504 21.7268C24.0208 24.0456 20.6591 25.3803 17.1448 25.5009H16.7446H16.5898C15.7459 25.4983 14.9055 25.395 14.0864 25.1934L13.9618 25.2647C12.2703 26.2097 10.5221 27.1098 8.8457 27.8636C11.1374 29.2284 13.7527 29.965 16.4246 29.998C19.0965 30.031 21.7294 29.3593 24.0546 28.0515C26.3798 26.7436 28.314 24.8465 29.6599 22.5536C31.0057 20.2608 31.715 17.6543 31.7154 15.0002C31.7158 14.2633 31.6603 13.5274 31.5493 12.7988Z" fill="white"/>
<path d="M9.35605 22.6222C7.85071 21.2101 6.79596 19.3901 6.3227 17.388C5.84943 15.3859 5.9785 13.2898 6.69387 11.3599C7.40923 9.42999 8.67941 7.7512 10.3468 6.53188C12.0141 5.31256 14.0053 4.60638 16.0731 4.50098C12.5549 4.62786 9.19191 5.97149 6.56523 8.29968C3.93855 10.6279 2.21326 13.7943 1.6875 17.2518C2.10121 19.9484 3.24735 22.482 5.00261 24.5798C6.23728 24.1073 7.72115 23.4473 9.35605 22.6222Z" fill="white"/>
<path d="M30.3936 12.6911L30.2048 12.9011C29.2685 13.865 28.249 14.8438 27.1842 15.8151C26.9874 18.3678 25.8584 20.7612 24.0095 22.5451C22.1606 24.329 19.7192 25.3805 17.1445 25.502C20.6588 25.3814 24.0205 24.0466 26.6501 21.7278C29.2797 19.409 31.0122 16.2516 31.549 12.7999C31.4924 12.4249 31.4244 12.0498 31.3414 11.6748C31.0431 12.0011 30.7297 12.3386 30.3936 12.6911Z" fill="white"/>
<path d="M16.614 2.25743e-07C14.4397 0.000941791 12.2912 0.468184 10.3154 1.36979C8.33963 2.27139 6.58314 3.58609 5.16602 5.22403C3.74889 6.86196 2.70454 8.78451 2.10436 10.8602C1.50417 12.936 1.36231 15.116 1.68845 17.2512C2.21421 13.7937 3.93951 10.6272 6.56619 8.29901C9.19287 5.97082 12.5559 4.62718 16.0741 4.5003C16.2553 4.5003 16.4516 4.5003 16.6178 4.5003C18.6237 4.50073 20.5881 5.06797 22.2816 6.13578C23.9751 7.20358 25.3278 8.72789 26.1817 10.5307C26.6726 10.0432 27.1244 9.57815 27.5372 9.13562C28.2924 8.31806 28.9267 7.58676 29.3836 6.98672C28.0217 4.8464 26.1365 3.0833 23.9037 1.86165C21.6709 0.639998 19.1631 -0.000438973 16.614 2.25743e-07Z" fill="white"/>
</svg>
