<svg width="24" height="25" viewBox="0 0 24 25" fill="none" xmlns="http://www.w3.org/2000/svg">
<g id="Warning / Octagon_Check">
<path id="Vector" d="M15 10.5L11 14.5L9 12.5M7.33173 4.4375L3.9375 7.83173L3.93442 7.83462C3.59057 8.17847 3.41824 8.35081 3.29492 8.55204C3.18526 8.73098 3.10425 8.9263 3.05526 9.13037C3 9.36055 3 9.60506 3 10.0942V14.9058C3 15.3949 3 15.6395 3.05526 15.8697C3.10425 16.0738 3.18526 16.2688 3.29492 16.4478C3.41857 16.6495 3.59182 16.8228 3.9375 17.1685L7.33173 20.5627C7.67763 20.9086 7.85021 21.0812 8.05204 21.2048C8.23099 21.3145 8.42581 21.3958 8.62988 21.4448C8.85971 21.5 9.10382 21.5 9.59151 21.5H14.4075C14.8952 21.5 15.1404 21.5 15.3702 21.4448C15.5743 21.3958 15.7693 21.3145 15.9482 21.2049C16.1501 21.0812 16.323 20.9086 16.6689 20.5627L20.0632 17.1685C20.4091 16.8226 20.5817 16.6496 20.7053 16.4478C20.815 16.2688 20.8953 16.0738 20.9443 15.8697C20.9996 15.6395 21 15.395 21 14.9058V10.0942C21 9.60506 20.9996 9.36055 20.9443 9.13037C20.8953 8.9263 20.815 8.73099 20.7053 8.55205C20.5817 8.35022 20.4091 8.17761 20.0632 7.83173L16.6689 4.4375C16.3233 4.09181 16.15 3.91857 15.9482 3.79492C15.7693 3.68526 15.5743 3.60425 15.3702 3.55526C15.14 3.5 14.8945 3.5 14.4053 3.5H9.59375C9.10457 3.5 8.86006 3.5 8.62988 3.55526C8.42581 3.60425 8.23099 3.68526 8.05204 3.79492C7.85204 3.91748 7.68106 4.08847 7.3414 4.42813L7.33173 4.4375Z" stroke="#375BD2" stroke-width="2" stroke-linecap="round" stroke-linejoin="round"/>
</g>
</svg>
